<svg width="1800.0000000000005" height="1800.0000000000005" xmlns="http://www.w3.org/2000/svg" xmlns:svg="http://www.w3.org/2000/svg">
 <!-- Created with SVG-edit - http://svg-edit.googlecode.com/ -->
 <g>
  <title>Layer 1</title>
  <ellipse id="svg_11" stroke="#000000" ry="52.67492" rx="103.24276" cy="958.1015" cx="851.34704" stroke-linecap="null" stroke-linejoin="null" stroke-dasharray="null" stroke-width="0" fill="#ff007f"/>
  <ellipse stroke="#000000" ry="52.67492" rx="103.24276" id="svg_10" cy="937.03154" cx="863.98902" stroke-linecap="null" stroke-linejoin="null" stroke-dasharray="null" stroke-width="0" fill="#00ffff"/>
  <path stroke="#000000" transform="rotate(178.08489990234375 824.9769897460939,747.5056762695312) " id="svg_5" d="m859.15535,933.7331c0,0 63.9616,-232.77178 -47.1296,-352.91206c-111.0912,-120.14028 47.1296,352.91206 47.1296,352.91206z" stroke-linecap="null" stroke-linejoin="null" stroke-dasharray="null" stroke-width="0" fill="#00ff7f"/>
  <path stroke="#000000" id="svg_6" transform="rotate(41.0879020690918 963.8370361328127,780.6812744140626) " d="m990.16121,979.68321c0,0 49.26309,-248.73913 -36.29912,-377.12062c-85.56221,-128.38149 36.29912,377.12062 36.29912,377.12062z" stroke-linecap="null" stroke-linejoin="null" stroke-dasharray="null" stroke-width="0" fill="#62af62"/>
  <path stroke="#000000" id="svg_7" transform="rotate(60.95863723754883 1014.8945922851561,812.8546142578126) " d="m1043.19043,1014.02423c0,0 52.95304,-251.44853 -39.01803,-381.22842c-91.97107,-129.77989 39.01803,381.22842 39.01803,381.22842z" stroke-linecap="null" stroke-linejoin="null" stroke-dasharray="null" stroke-width="0" fill="#40c980"/>
  <path id="svg_8" stroke="#000000" transform="rotate(11.97071361541748 879.5572509765608,721.6853637695312) " d="m905.88138,920.68733c0,0 49.26309,-248.73912 -36.29912,-377.12062c-85.56221,-128.38149 36.29912,377.12062 36.29912,377.12062z" stroke-linecap="null" stroke-linejoin="null" stroke-dasharray="null" stroke-width="0" fill="#00ff00"/>
  <path id="svg_9" stroke="#000000" transform="rotate(30.03179931640625 934.3391113281249,734.3273315429688) " d="m960.66328,933.32931c0,0 49.26309,-248.73912 -36.29912,-377.12062c-85.56221,-128.38149 36.29912,377.12062 36.29912,377.12062z" stroke-linecap="null" stroke-linejoin="null" stroke-dasharray="null" stroke-width="0" fill="#92c958"/>
 </g>
</svg>
